<svg width="309" height="305" viewBox="0 0 309 305" fill="none" xmlns="http://www.w3.org/2000/svg">
<g clip-path="url(#clip0_10_2)">
<path d="M56.4763 43.7649H57.9065L56.7623 43.1928L56.4763 43.7649ZM60.1948 42.0487C60.1948 42.3347 60.1948 42.3347 60.4808 42.3347L61.625 41.4766C61.0529 41.1905 60.7669 41.1905 60.1948 42.0487ZM49.0394 49.7716L49.8975 49.1996C50.1835 48.9135 50.1835 48.6275 50.1835 48.6275H49.6114L49.0394 49.7716C48.7533 49.7716 48.7533 49.4856 49.0394 49.7716ZM55.3322 41.4766H55.0461L54.4741 42.0487H55.3322V41.4766ZM49.3254 48.3415L51.0416 46.9113C51.3276 46.6252 51.3276 46.3392 51.3276 46.0532H50.4695L47.0371 49.1996L46.465 50.3437L48.4673 48.6275L49.3254 48.3415Z" fill="#FF4A3F"/>
<path d="M27.5866 71.5104V70.9383C27.6969 70.3079 27.9305 69.7055 28.2741 69.1655C28.6177 68.6256 29.0645 68.1588 29.5889 67.7919L32.1632 66.0757L33.5934 64.3595L35.5957 62.3572L36.7398 61.2131L37.8839 60.355C38.9057 59.7677 39.7088 58.8642 40.1722 57.7807L41.3164 56.3505C42.4383 55.2502 43.4011 53.9986 44.1768 52.632L44.7488 51.7739L45.6069 51.2018L45.0349 50.3437L46.179 48.9135C48.4673 47.1973 50.1835 44.909 52.4718 43.1928L53.3299 42.3347C53.6342 41.6385 54.1302 41.0433 54.7601 40.6185L57.0484 39.4743H58.1925C59.0346 39.1447 59.7403 38.5398 60.1948 37.7581V37.186C61.0389 35.5322 62.3264 34.1457 63.9133 33.1815L66.2016 31.7513L66.7736 31.1793L67.9178 30.0351L70.7781 28.6049H71.3502L68.2038 29.7491L64.1993 32.6094C62.4831 34.0396 60.1948 34.3257 59.0507 36.6139H59.9088C57.9065 37.186 55.9042 38.0441 55.0461 40.0464C54.188 42.0486 52.7578 41.7626 51.6137 42.6207C51.362 42.6856 51.1398 42.8342 50.9839 43.0422C50.8279 43.2502 50.7474 43.505 50.7556 43.7649C48.4673 43.4788 47.6092 45.195 46.465 46.3392V48.6275C44.5981 49.5127 43.0137 50.8991 41.8885 52.632C37.3119 52.918 37.3119 58.6388 33.3074 59.7829H33.0213C32.9711 59.8699 32.9447 59.9685 32.9447 60.0689C32.9447 60.1694 32.9711 60.268 33.0213 60.355C32.1632 60.355 31.5911 60.9271 31.8772 61.7852L31.3051 63.2153C29.3029 64.3595 29.5889 66.3617 28.4447 68.078C26.1565 69.5081 25.2983 72.3685 23.5821 74.3708L24.4402 75.801L25.0123 75.2289C25.7848 73.9323 26.6449 72.6899 27.5866 71.5104ZM154.015 9.44048L155.731 10.0126H156.303C157.539 10.6388 158.946 10.8399 160.308 10.5846C162.117 10.2525 163.978 10.3505 165.742 10.8707H169.175C169.774 10.7412 170.396 10.7513 170.991 10.9001C171.586 11.0489 172.139 11.3324 172.607 11.7288C172.632 11.7723 172.645 11.8216 172.645 11.8718C172.645 11.922 172.632 11.9713 172.607 12.0148H171.463C171.438 12.0583 171.425 12.1076 171.425 12.1578C171.425 12.208 171.438 12.2574 171.463 12.3008H173.465C174.661 11.8376 175.988 11.8376 177.184 12.3008C177.756 12.3008 177.47 12.5869 177.756 12.8729L179.186 13.445H178.614C178.042 12.3008 177.184 12.3008 176.326 12.3008C172.477 10.5134 168.269 9.63269 164.026 9.72651H161.738C158.406 8.70861 154.914 8.3206 151.44 8.58237H152.013L154.015 9.44048ZM196.348 19.7378C196.711 20.1113 197.179 20.3659 197.69 20.4681C198.2 20.5702 198.73 20.515 199.209 20.3099H200.925C199.466 19.1112 197.662 18.4098 195.776 18.3076L193.774 17.7355L195.204 18.5936L196.348 19.7378ZM186.623 16.0193C186.623 16.3054 186.909 16.5914 187.195 16.8774H187.767L189.197 16.0193C187.72 15.102 186.061 14.5165 184.335 14.3031L186.337 15.4472L186.623 16.0193ZM207.79 23.7423L210.078 25.1725C209.506 24.3144 208.934 23.7423 207.79 23.7423Z" fill="#8A60F6"/>
<path d="M283.017 217.675L284.733 213.099L286.45 208.808C287.022 207.378 288.166 203.659 288.738 201.371C288.869 200.647 289.162 199.963 289.596 199.369H289.882V196.222C291.312 195.936 291.026 194.506 291.312 193.648L293.601 180.204C295.066 174.384 295.066 168.291 293.601 162.47C293.728 161.649 293.665 160.809 293.418 160.015C293.17 159.222 292.743 158.496 292.17 157.893V145.594C291.312 143.02 293.029 140.159 291.026 137.871L288.738 128.718C288.786 128.53 288.786 128.333 288.738 128.146L288.166 126.429C288.087 126.249 288.046 126.054 288.046 125.857C288.046 125.66 288.087 125.466 288.166 125.285H288.452C289.31 125.285 289.31 123.855 289.31 122.711C289.139 121.597 288.75 120.528 288.166 119.565L287.308 118.42C286.895 117.837 286.694 117.131 286.736 116.418C286.834 114.493 286.641 112.565 286.164 110.697V108.981C285.592 106.979 285.019 104.691 284.447 102.688L283.875 101.258C283.25 100.315 282.858 99.2364 282.731 98.1118C282.579 97.3055 282.288 96.5314 281.873 95.8235L280.157 92.9631C279.925 92.7562 279.653 92.5987 279.358 92.5003C279.063 92.402 278.751 92.3648 278.441 92.3911H278.155V91.533H277.583V89.2447H277.297V88.6726C277.308 88.5776 277.308 88.4815 277.297 88.3866V87.8145C277.583 87.2424 277.583 86.9564 277.01 86.3843C276.517 85.8953 276.128 85.3115 275.866 84.6681L275.294 82.9519C274.915 81.6624 274.228 80.4845 273.292 79.5194C272.688 78.9526 272.202 78.2722 271.862 77.5172L269.86 72.9406C269.42 71.9136 268.843 70.9513 268.143 70.0802L266.427 67.7919C265.906 67.1076 265.518 66.3314 265.283 65.5036L264.711 64.6455C264.561 64.4428 264.458 64.2095 264.408 63.9623C264.359 63.7152 264.365 63.4601 264.425 63.2154C264.425 62.9933 264.373 62.7743 264.274 62.5757C264.175 62.3772 264.03 62.2044 263.853 62.0712L262.709 61.2131V61.7852C262.995 62.3572 262.709 62.6433 262.423 62.6433H261.851L262.709 65.5036L263.567 66.9338L265.569 69.5082H265.283L264.711 68.9361L264.139 68.364C264.01 67.5271 263.6 66.7592 262.976 66.187C262.352 65.6149 261.551 65.2729 260.706 65.2176V63.2154C259.848 59.7829 256.13 59.4969 254.414 57.2086C254.143 56.5528 253.714 55.9744 253.165 55.5251C252.616 55.0759 251.964 54.7698 251.267 54.6343L248.979 52.0599C246.602 48.6567 243.591 45.7432 240.112 43.4788L237.823 41.7626L236.679 40.9045C234.677 38.9022 233.819 35.7558 230.387 35.7558L228.098 34.3257L225.524 32.3234C225.073 31.3027 224.358 30.4204 223.453 29.767C222.548 29.1136 221.486 28.7125 220.375 28.6049C218.515 26.9128 216.249 25.7304 213.796 25.1725L214.368 25.7446L215.799 26.8887L219.517 28.891C221.746 30.0943 223.772 31.6385 225.524 33.4676C226.803 34.7079 228.247 35.7666 229.814 36.614L231.531 38.0441C231.817 38.3302 232.103 38.6162 231.817 38.9022H231.531L228.956 38.0441C226.919 37.6588 224.976 36.8816 223.236 35.7558L219.803 34.0396L216.085 32.0374H215.513C214.655 31.7513 214.368 30.8932 213.224 30.6072L210.936 30.0351L203.785 28.6049C202.789 28.1362 201.91 27.4523 201.211 26.6027C200.289 26.5667 199.396 26.2691 198.636 25.7446L195.776 24.6004C193.049 24.054 190.371 23.2888 187.767 22.3121L186.051 21.7401L183.19 20.8819H181.76L181.188 20.0238V19.7378H176.612L174.895 18.3076L173.751 18.8797L172.607 19.4518H172.035L169.461 18.0216C167.745 19.7378 166.314 17.4495 164.884 17.7355L162.024 16.8774C161.502 17.1787 160.91 17.3373 160.308 17.3373C159.705 17.3373 159.113 17.1787 158.591 16.8774H155.159C154.755 16.8092 154.389 16.5986 154.126 16.2839C153.864 15.9691 153.723 15.5709 153.729 15.1612L154.587 14.5891H156.303C156.463 14.8496 156.56 15.1431 156.589 15.4472C156.589 16.0193 157.161 16.0193 158.019 16.0193H158.591L157.447 14.3031C157.052 13.9839 156.585 13.7652 156.087 13.6656C155.589 13.5659 155.074 13.5884 154.587 13.731L151.726 14.5891H151.44C152.299 15.1612 152.013 15.4472 152.013 16.0193H147.436L146.292 15.4472L144.003 14.3031H143.717L141.715 13.731H135.136L136.281 13.159L138.569 12.5869H139.427L144.29 11.7288L147.436 11.1567L149.152 10.5846H146.006C142.798 9.9217 139.488 9.9217 136.281 10.5846H132.562L122.837 10.2986C118.832 10.5846 114.828 10.2986 111.681 13.731C104.53 12.5869 98.2376 15.7333 91.9448 18.8797L85.652 21.454C81.6716 22.0177 77.9691 23.8189 75.0687 26.6027H75.9268L77.357 25.7446L79.6453 24.3144L83.3638 22.5982L86.2241 22.0261C87.9567 20.8238 89.896 19.9511 91.9448 19.4518L94.5192 18.5937H95.0912C95.3773 19.1657 96.5214 18.5937 97.0935 18.5937H97.6656C97.9516 18.5937 97.9516 18.8797 97.6656 18.8797L95.9494 20.0238L98.8097 19.1657L101.098 18.5937L97.3795 20.5959L93.6611 21.7401C93.2937 21.8511 92.9524 22.035 92.6576 22.2807C92.3627 22.5264 92.1203 22.8289 91.9448 23.1702L91.0867 24.6004H91.9448L93.089 24.0283C93.3828 23.5858 93.7617 23.2062 94.2037 22.9116C94.6457 22.6169 95.1418 22.4132 95.6633 22.3121L99.9539 20.8819H101.384C101.46 20.844 101.548 20.8378 101.628 20.8646C101.709 20.8914 101.775 20.9491 101.813 21.025C101.851 21.1008 101.857 21.1886 101.83 21.2691C101.804 21.3496 101.746 21.4161 101.67 21.454C101.098 22.0261 99.9539 22.3121 99.3818 22.8842H99.9539L90.8007 25.4585L79.9313 30.0351C78.0636 31.7167 75.8002 32.8976 73.3525 33.4676C71.9031 34.7602 70.2629 35.8215 68.4899 36.614L66.2016 37.186C65.883 37.9188 65.366 38.5481 64.7091 39.0029C64.0521 39.4577 63.2811 39.7201 62.4831 39.7604L61.625 41.1905C60.7286 42.4811 59.5561 43.556 58.1925 44.3369H57.9065V44.0509L57.3344 44.623L56.7624 45.1951L53.902 45.7671H52.4718L51.3277 47.1973C51.0416 47.4833 51.0416 47.7694 51.3277 47.7694H51.6137C49.8975 49.4856 48.7533 51.7739 46.465 52.632L42.7466 56.9225C41.0303 60.355 37.5979 61.4991 35.3096 64.3595C33.0213 67.2199 31.3051 75.5149 24.1542 76.6591L23.5821 75.801L23.0101 77.2311C22.7585 78.0522 22.3719 78.8256 21.8659 79.5194C20.5798 81.4371 19.4327 83.4445 18.4335 85.5262C18.1847 85.959 18.0842 86.4612 18.1474 86.9564C18.1908 87.7593 17.9915 88.5566 17.5754 89.2447L16.1452 92.3911H16.7172C17.5754 92.3911 17.5754 93.2492 17.8614 94.1073L20.1497 90.9609C20.5739 90.1797 21.1588 89.4974 21.8659 88.9586C22.9815 88.4038 23.8854 87.4999 24.4402 86.3843L25.2983 85.5262L26.4425 84.3821L28.1587 81.2357H28.7308C29.0168 81.5217 29.0168 81.5217 29.3029 81.2357L29.8749 80.0915H31.3051V82.3798L32.7353 80.9496C32.8608 80.7322 32.9269 80.4856 32.9269 80.2345C32.9269 79.9835 32.8608 79.7368 32.7353 79.5194C32.7221 79.3645 32.7407 79.2084 32.7899 79.0609C32.8391 78.9134 32.9178 78.7774 33.0213 78.6613C33.3982 78.2453 33.6897 77.7594 33.8794 77.2311C34.025 76.6493 34.3091 76.1113 34.7075 75.6631C35.106 75.2148 35.607 74.8696 36.1677 74.6568L37.0258 74.0847L37.8839 73.2266C38.8917 72.498 39.6826 71.5094 40.1722 70.3663L39.6002 69.5082C39.6002 69.2221 39.8862 68.65 40.1722 68.364H41.6024L43.3186 66.0757L45.0349 65.2176H45.6069C39.7356 71.5798 34.4689 78.4744 29.8749 85.8122C23.4699 95.7973 18.3749 106.564 14.715 117.848H13.2848L11.8546 116.704C11.2826 116.132 11.5686 114.702 10.7105 114.13H10.9965C11.8546 112.7 10.7105 110.697 11.8546 109.267C12.9988 107.837 12.1407 105.263 9.2803 105.835C6.41993 106.407 4.98975 107.265 5.56182 110.125C6.13389 112.986 2.70146 115.274 2.41542 118.42C2.12938 121.567 0.985237 119.851 1.55731 120.995V132.15C1.84335 134.438 0.127127 137.299 3.8456 138.157L7.56408 140.731C7.85011 142.161 6.13389 145.308 10.1384 144.45C9.60972 149.199 9.32331 153.973 9.2803 158.752C9.2803 161.898 9.56633 165.044 9.56633 168.191V167.047C9.2803 165.902 9.2803 164.758 8.99426 163.328L8.13615 164.186V163.614H6.70597C6.70597 165.044 6.41993 165.902 5.56182 166.189C5.3306 166.628 5.23127 167.124 5.27578 167.619C5.27578 167.905 5.56182 168.477 5.84786 168.191C6.13389 167.905 6.992 168.763 7.85011 169.335C8.70822 169.907 7.27804 170.193 6.70597 169.907C6.13389 169.621 6.13389 170.193 6.13389 170.765V171.623L7.56408 175.914C7.56408 176.772 7.27804 177.63 7.27804 178.488C7.27804 179.286 7.47451 180.072 7.85011 180.776H6.992V179.918L4.98975 179.346V177.63C5.06976 177.157 5.06976 176.673 4.98975 176.2C4.59663 174.503 4.31004 172.784 4.13164 171.051C3.58812 167.744 3.39636 164.388 3.55957 161.04C3.51505 160.546 3.61438 160.049 3.8456 159.61V160.182C3.98275 160.649 4.07847 161.128 4.13164 161.612C4.12538 162.012 4.224 162.406 4.41768 162.756C4.70371 163.328 4.98975 163.9 5.56182 163.9C6.13389 163.9 5.84786 163.614 5.84786 163.328C5.81096 162.842 5.7149 162.361 5.56182 161.898C5.07949 160.712 4.7898 159.457 4.70371 158.179C4.59469 157.449 4.29913 156.76 3.8456 156.177C3.40646 155.394 3.2075 154.499 3.27353 153.603V151.315C3.27353 150.457 3.55957 149.598 3.55957 148.74C3.59598 148.54 3.5893 148.335 3.53997 148.137C3.49065 147.94 3.39981 147.756 3.27353 147.596H2.98749C0.6992 148.74 0.985237 148.168 0.127127 152.173V157.321C0.127127 159.324 -0.158909 161.326 0.127127 163.328C0.082208 165.535 0.273995 167.741 0.6992 169.907C0.765735 170.381 0.765735 170.863 0.6992 171.337C0.668025 172.205 0.764399 173.072 0.985237 173.911C1.21767 175.137 1.3136 176.384 1.27127 177.63C1.09952 179.273 1.29492 180.934 1.84335 182.493C1.90736 182.871 1.90736 183.258 1.84335 183.637C1.79 184.411 1.88714 185.188 2.12938 185.925C2.40056 186.763 2.5921 187.625 2.70146 188.499C3.00812 190.632 3.4864 192.736 4.13164 194.792C4.41932 195.724 4.61101 196.682 4.70371 197.653C4.83465 198.376 5.12804 199.061 5.56182 199.655C6.29216 200.676 6.78117 201.85 6.992 203.087C7.21916 204.057 7.50574 205.013 7.85011 205.948L8.99426 209.952C9.34795 211.46 9.92649 212.907 10.7105 214.243C11.7357 216.135 12.5052 218.155 12.9988 220.249L13.5708 221.68C14.2973 222.486 14.7915 223.475 15.001 224.54C15.2137 225.376 15.6039 226.157 16.1452 226.828C16.4631 227.244 16.6609 227.738 16.7172 228.258C17.0033 229.117 17.2893 229.403 17.8614 229.117H18.1474V231.691L19.5776 234.551L21.0078 237.412L24.1542 240.844L25.2983 241.988C26.1564 242.846 27.3006 243.418 27.8727 244.849L29.0168 245.707C29.2542 245.869 29.4538 246.081 29.6019 246.328C29.75 246.575 29.8431 246.851 29.8749 247.137L30.447 249.139C30.8736 250.086 31.4534 250.956 32.1632 251.713L33.3074 252.285H34.1655C34.2479 252.314 34.3225 252.362 34.3838 252.424C34.4451 252.486 34.4913 252.562 34.5189 252.644C34.5465 252.727 34.5548 252.815 34.5431 252.902C34.5314 252.988 34.5001 253.071 34.4515 253.144C34.4037 253.619 34.4037 254.098 34.4515 254.574C34.6447 255.175 35.0518 255.684 35.5957 256.004H36.1677C37.3119 255.718 38.456 256.576 39.6002 258.006H39.8862C39.8862 257.72 40.1722 257.72 39.8862 257.434V256.862C39.8862 256.576 40.1722 256.29 40.4583 256.576C40.7336 256.767 40.9564 257.025 41.1063 257.325C41.2562 257.625 41.3285 257.957 41.3164 258.292V258.864C41.5265 260.059 41.912 261.215 42.4605 262.297C43.8907 263.155 43.8907 263.155 43.8907 262.583C43.8907 262.011 43.8907 262.011 44.4628 262.011H45.6069L46.179 262.869L48.4673 264.299C50.4696 266.587 53.616 266.301 55.9042 267.731L60.7669 272.594H61.3389C61.7561 273.625 62.3762 274.561 63.1625 275.347C63.9487 276.133 64.8849 276.754 65.9155 277.171C66.2257 277.66 66.6459 278.07 67.1425 278.368C67.6391 278.665 68.1984 278.843 68.7759 278.887C68.7759 280.317 70.4921 280.603 71.9223 280.889C72.5091 281.551 73.3289 281.961 74.2106 282.033H74.7827C75.3285 282.601 76.0041 283.028 76.7515 283.278C77.4989 283.527 78.2957 283.591 79.0732 283.463L81.6475 285.752L88.5124 288.326V288.898C89.9426 292.045 93.375 290.9 95.6633 291.759L98.8097 292.903H99.9539C103.386 293.761 106.819 295.477 110.537 294.333C110.426 294.706 110.426 295.104 110.537 295.477C113.684 297.479 117.402 295.477 120.835 296.621C122.39 297.201 124.084 297.301 125.697 296.907H125.983L128.271 297.479H129.13L131.704 298.051H132.562C132.779 297.926 133.026 297.86 133.277 297.86C133.528 297.86 133.775 297.926 133.992 298.051C135.381 298.573 136.818 298.956 138.283 299.195H139.999C140.303 299.02 140.649 298.927 141 298.927C141.352 298.927 141.697 299.02 142.001 299.195H153.157C154.688 299.347 156.233 299.25 157.733 298.909H160.594L162.024 298.337H171.463L173.179 297.765L174.609 296.907H180.902V298.623H177.184L173.751 299.195C172.607 299.482 171.749 299.195 170.891 299.482C169.989 299.875 169.014 300.07 168.031 300.054L164.312 300.912H163.168C161.736 300.654 160.262 300.752 158.877 301.198H153.729C153.324 301.379 152.885 301.473 152.442 301.473C151.998 301.473 151.559 301.379 151.154 301.198H138.283C137.728 301.092 137.156 301.115 136.61 301.263C136.065 301.412 135.561 301.683 135.136 302.056H134.278L133.42 301.484V300.626H129.988C128.803 300.139 127.547 299.849 126.269 299.768H119.118L117.116 299.195L115.686 298.623L109.679 297.479H108.249L106.819 296.907L100.812 294.905L96.8075 293.761H90.5147C90.2286 293.761 90.2286 294.047 90.2286 294.333H90.8007C94.5192 295.763 98.2376 296.907 101.956 298.623H102.814L105.389 299.195L109.393 300.34H113.112L114.828 300.912L116.83 301.77L121.693 302.628L124.839 303.2L127.985 303.772H130.274L132.562 304.344H141.429L144.29 304.916H150.868L153.729 304.344H160.022C161.166 304.344 161.738 304.058 162.024 303.486H164.884C165.305 303.521 165.729 303.462 166.125 303.314C166.52 303.165 166.878 302.931 167.172 302.628C166.886 302.914 167.172 302.914 167.458 303.2H168.603V302.628C168.603 302.342 168.603 302.342 169.175 302.056C169.747 301.77 170.891 301.77 171.177 302.342H172.321L173.179 301.77C173.751 301.77 173.751 301.77 173.751 302.056H175.754L177.184 301.484L179.472 300.34C179.758 301.198 180.616 301.484 183.19 300.912L186.909 299.768H190.341C192.916 299.482 196.062 299.768 198.064 297.765H198.636L199.781 296.907L202.927 296.049C204.955 295.632 206.892 294.857 208.648 293.761L209.792 293.189H210.078L212.652 291.473L213.796 290.9L215.227 290.328H216.371C217.515 290.042 217.515 290.042 217.801 289.184C218.087 288.326 217.801 288.898 217.229 288.898H216.943L218.087 287.468H218.659C219.517 287.182 220.089 286.896 220.661 287.182H221.233C221.847 287.01 222.406 286.682 222.857 286.231C223.308 285.781 223.635 285.221 223.808 284.608C224.666 283.463 226.954 284.036 227.526 282.319L239.826 273.452C242.972 273.166 243.83 270.306 246.119 268.59C248.407 266.873 252.697 265.443 254.7 262.297L257.274 261.153H257.56C258.28 261.329 259.04 261.218 259.681 260.845C260.321 260.471 260.791 259.864 260.992 259.15V260.295C263.281 259.15 266.141 261.153 268.429 258.864C270.718 256.576 268.429 251.141 271.29 247.995L273.292 246.565C275.454 242.861 276.909 238.787 277.583 234.551L278.155 233.979C278.155 233.121 278.155 231.977 279.299 231.405C279.806 231.008 280.147 230.435 280.253 229.8C280.358 229.164 280.222 228.512 279.871 227.972H279.299C279.374 227.842 279.414 227.694 279.414 227.543C279.414 227.393 279.374 227.245 279.299 227.114C281.301 227.114 281.587 225.112 282.731 224.254V220.249C282.693 220.061 282.693 219.866 282.731 219.677C282.889 219.02 282.984 218.35 283.017 217.675Z" fill="#8A60F6"/>
<path d="M75.3547 26.6027L74.4966 27.1748L73.3525 28.0329L74.7827 27.4608L75.3547 26.6027ZM92.8029 20.882H93.089L93.9471 20.3099H92.8029V20.882ZM85.366 23.7423L85.08 24.0284H85.366V23.7423ZM26.1564 74.9429L25.0123 76.087H25.5844C25.7828 75.975 25.9433 75.8062 26.0452 75.6023C26.1472 75.3985 26.1859 75.1689 26.1564 74.9429ZM34.7375 64.9316C35.1137 64.4092 35.4034 63.8297 35.5956 63.2154C35.0118 63.5713 34.5214 64.0617 34.1655 64.6455C33.8794 64.9316 33.8794 65.2176 34.1655 65.2176L34.7375 64.9316ZM31.3051 69.2221V68.6501C30.733 68.6501 29.8749 69.5082 29.0168 69.5082V70.0802C29.8749 70.9383 30.161 70.6523 31.3051 69.2221ZM211.222 26.3166H211.508L210.078 25.4585L211.222 26.3166ZM204.071 22.3121C205.501 22.0261 206.359 23.4563 207.504 23.7423H207.79L206.932 23.1702L204.071 21.7401L200.925 20.3099L201.783 20.882L204.071 22.3121ZM184.335 14.5891H184.049L180.616 14.0171H182.046L184.335 14.5891ZM190.055 16.5914L193.774 17.7355C192.627 17.1001 191.361 16.7104 190.055 16.5914ZM164.312 16.5914C164.63 16.176 164.828 15.6813 164.884 15.1612H163.454L162.596 16.0193L163.74 16.8774L164.312 16.5914ZM178.042 17.4495C178.032 17.5446 178.032 17.6404 178.042 17.7355V17.4495ZM306.186 167.047H305.328V165.902H306.186C306.472 165.902 306.758 165.044 306.472 164.758C306.186 164.472 306.186 162.756 305.614 162.47C305.439 162.408 305.288 162.291 305.185 162.137C305.082 161.982 305.032 161.798 305.042 161.612L305.614 160.468C305.663 160.28 305.663 160.083 305.614 159.896H305.042L304.47 159.038C304.184 159.896 303.898 160.754 303.326 161.04C303.287 161.229 303.287 161.423 303.326 161.612C303.326 161.898 303.326 162.184 303.04 162.184H302.754C302.7 162.482 302.604 162.771 302.468 163.042C301.905 163.808 301.515 164.686 301.324 165.616C301.263 165.815 301.257 166.027 301.308 166.228C301.358 166.43 301.463 166.614 301.61 166.761H301.896C301.618 167.489 301.52 168.274 301.61 169.049V170.193C301.583 170.681 301.486 171.162 301.324 171.623H301.038L299.893 173.625V175.342C300.033 176.463 299.724 177.593 299.035 178.488H298.463L297.891 177.916C297.669 177.583 297.527 177.203 297.478 176.806C297.428 176.408 297.472 176.005 297.605 175.628C297.913 174.026 298.009 172.391 297.891 170.765C297.891 170.479 297.605 170.193 297.605 170.193C297.419 170.441 297.319 170.742 297.319 171.051V172.767C297.319 173.339 297.033 174.484 296.461 174.77C295.889 175.056 296.175 175.342 296.175 175.628L295.603 177.344L296.461 178.774C295.889 179.346 295.317 179.06 295.031 178.488V181.348H295.889V182.493C295.376 183.768 295.085 185.123 295.031 186.497C295.008 186.878 295.008 187.26 295.031 187.641C295.047 188.904 294.853 190.16 294.459 191.36C294.372 191.929 294.372 192.507 294.459 193.076L293.601 195.078C293.395 195.777 293.107 196.45 292.742 197.08L291.884 198.797L289.31 206.52C290.168 209.094 288.166 210.81 287.022 212.526C287.182 213.726 287.059 214.946 286.661 216.088C286.264 217.231 285.604 218.265 284.733 219.105V220.249C284.733 220.535 285.019 220.821 285.592 220.535L286.736 219.677L287.308 218.533H287.88C288.166 218.819 288.452 218.819 289.024 218.247H289.596C289.826 218.462 289.978 218.747 290.03 219.057C290.082 219.367 290.03 219.686 289.882 219.963C289.681 220.709 289.584 221.479 289.596 222.252C289.596 222.538 289.596 222.824 289.882 222.824H290.454C290.74 223.11 291.026 222.824 291.312 221.966L291.884 220.535H292.742C293.887 220.249 293.887 220.249 294.459 218.819L295.889 216.245L296.747 214.529L297.891 211.668C297.849 210.646 298.151 209.639 298.749 208.808C298.946 208.573 299.076 208.29 299.126 207.989C299.176 207.687 299.145 207.377 299.035 207.092C299.035 206.52 299.035 206.234 299.607 205.376L300.465 204.231L301.896 201.371C302.002 200.496 302.193 199.634 302.468 198.797C303.029 197.637 303.323 196.366 303.326 195.078C303.503 194.188 303.791 193.323 304.184 192.504V191.074C303.898 190.502 303.898 190.502 304.184 189.357C304.47 188.213 304.47 188.785 304.756 188.785C304.86 188.901 304.938 189.037 304.987 189.185C305.037 189.333 305.055 189.489 305.042 189.643L305.614 188.213C305.977 187.403 306.171 186.527 306.186 185.639V184.781C306.186 184.495 306.186 183.923 305.9 183.923V185.067C305.328 185.067 305.042 185.639 304.47 185.925C304.613 185.169 304.709 184.405 304.756 183.637L305.9 183.065C306.124 182.844 306.292 182.573 306.391 182.275C306.49 181.977 306.518 181.659 306.472 181.348C306.441 181.063 306.441 180.776 306.472 180.49C306.86 179.191 307.052 177.842 307.044 176.486V175.914L307.902 173.053H308.188C308.311 172.951 308.403 172.817 308.454 172.665C308.504 172.513 308.511 172.351 308.474 172.195H308.188C308.095 171.796 308.097 171.38 308.197 170.982C308.297 170.584 308.49 170.215 308.761 169.907C308.584 169.263 308.259 168.669 307.812 168.172C307.365 167.675 306.808 167.29 306.186 167.047ZM25.8704 88.1005C25.9358 87.9155 25.9358 87.7135 25.8704 87.5285L25.2983 86.9564L24.7263 87.5285L23.8681 89.2447C23.8681 90.1028 23.01 90.9609 23.01 91.819V92.3911H23.2961L25.8704 88.1005ZM301.324 159.038H301.61C302.217 158.003 302.421 156.781 302.182 155.605C302.131 155.337 302.157 155.06 302.259 154.806C302.36 154.553 302.532 154.334 302.754 154.175H303.04V153.603L302.468 153.031H302.182C301.896 153.317 301.61 153.889 301.324 153.889C301.038 153.889 301.038 154.175 301.038 154.747V155.605C300.812 156.754 300.911 157.942 301.324 159.038ZM37.5979 257.72C37.3119 257.72 37.5979 258.292 37.5979 258.578L39.8862 260.867H40.1722C39.6002 260.008 39.3141 259.15 39.6002 258.864C39.0762 258.824 38.5771 258.624 38.17 258.292L37.5979 257.72ZM303.898 156.463H304.184C304.27 155.894 304.27 155.316 304.184 154.747C303.326 155.033 303.326 155.033 303.326 156.463C303.326 157.893 303.612 156.749 303.898 156.463Z" fill="#8A60F6"/>
<path d="M305.042 177.344C305.192 177.141 305.295 176.908 305.345 176.661C305.394 176.414 305.388 176.158 305.328 175.914C305.328 175.628 305.042 175.342 305.042 175.628H304.47V176.2C304.47 177.344 304.756 177.63 305.042 177.344ZM305.328 153.889H305.042V155.605C305.313 155.077 305.413 154.477 305.328 153.889ZM48.7533 264.871H48.1812V265.443L48.7533 266.015H49.3254V265.443L48.7533 264.871ZM296.461 169.621C296.461 169.335 296.461 169.335 296.175 169.335L296.461 169.621ZM28.1587 247.423L29.5889 248.853L28.4447 247.137L28.1587 247.423Z" fill="#8A60F6"/>
<path d="M265.569 67.2199L264.997 66.3618H264.711L265.569 67.2199ZM16.4312 92.6771C16.5967 92.5304 16.6992 92.3255 16.7172 92.105V92.6771H16.4312ZM46.7511 264.585H46.465C46.7511 264.871 47.0371 264.585 46.7511 264.299V264.585ZM47.3232 266.587H47.6092L47.3232 266.301V266.587Z" fill="#FF4A3F"/>
<path d="M91.056 255V64.6H168.576C177.461 67.864 185.349 73.576 192.24 81.736C199.131 89.896 202.576 99.7787 202.576 111.384C202.576 131.875 195.867 146.2 182.448 154.36V155.448C199.131 164.696 207.472 179.203 207.472 198.968C207.472 221.635 195.957 240.312 172.928 255H91.056ZM128.048 143.208H154.976C162.955 138.312 166.944 130.877 166.944 120.904C166.944 110.931 163.227 103.043 155.792 97.24H128.048V143.208ZM128.048 223.448H156.064C159.328 221.091 162.229 217.373 164.768 212.296C167.488 207.219 168.848 202.141 168.848 197.064C168.848 191.987 167.76 187.363 165.584 183.192C163.408 179.021 160.688 175.939 157.424 173.944H128.048V223.448Z" fill="white"/>
</g>
<defs>
<clipPath id="clip0_10_2">
<rect width="308.761" height="304.916" fill="white"/>
</clipPath>
</defs>
</svg>
